<svg width="227" height="60" viewBox="0 0 227 60" fill="none" xmlns="http://www.w3.org/2000/svg">
<g clip-path="url(#clip0_19_119)">
<path d="M19 0L0 13.646V48.6501L10.5341 59.1841L10.3021 22.4196L19 15.3082L27.6979 22.4196L27.4659 59.1841L38 48.6501V13.646L19 0Z" fill="#252420"/>
<path d="M25.9939 29.5921L19 33.791L12.0062 29.5921V41.8506L19 46.055L25.9939 41.8506V29.5921Z" fill="#FF7401"/>
</g>
<path d="M60.0781 19.4046L55.1875 38.0921H50.3594L57.4688 15.3421H60.4844L60.0781 19.4046ZM63.9375 38.0921L59.0156 19.4046L58.5625 15.3421H61.625L68.7969 38.0921H63.9375ZM64.1094 29.6077V33.4046H53.8438V29.6077H64.1094ZM75.125 14.0764V38.0921H70.75V14.0764H75.125ZM84.0156 21.1858L78.0625 29.5921L74.4844 33.6077L72.9375 30.2796L75.6875 26.2639L78.7969 21.1858H84.0156ZM79.4531 38.0921L75.7656 30.3264L78.7812 27.5452L84.4688 38.0921H79.4531ZM93.5156 34.2014V26.3889C93.5156 25.8785 93.4531 25.4723 93.3281 25.1702C93.2135 24.8681 93.0365 24.6494 92.7969 24.5139C92.5677 24.3681 92.2865 24.2952 91.9531 24.2952C91.5781 24.2952 91.2656 24.3733 91.0156 24.5296C90.7656 24.6858 90.5781 24.9098 90.4531 25.2014C90.3385 25.4931 90.2812 25.8421 90.2812 26.2483H85.8906C85.8906 25.5192 86.0312 24.8317 86.3125 24.1858C86.5938 23.5296 87.0052 22.9567 87.5469 22.4671C88.099 21.9671 88.7552 21.5764 89.5156 21.2952C90.276 21.0139 91.1302 20.8733 92.0781 20.8733C93.2031 20.8733 94.2031 21.066 95.0781 21.4514C95.9531 21.8264 96.6458 22.4254 97.1562 23.2483C97.6667 24.0712 97.9219 25.1389 97.9219 26.4514V33.9827C97.9219 34.9306 97.9688 35.7014 98.0625 36.2952C98.1667 36.8889 98.3177 37.3994 98.5156 37.8264V38.0921H94.1094C93.9115 37.6233 93.7604 37.04 93.6562 36.3421C93.5625 35.6337 93.5156 34.9202 93.5156 34.2014ZM94.0469 27.7639L94.0625 30.3889H92.4531C92.0365 30.3889 91.6719 30.4567 91.3594 30.5921C91.0573 30.7275 90.8021 30.9202 90.5938 31.1702C90.3854 31.4098 90.2292 31.691 90.125 32.0139C90.0312 32.3369 89.9844 32.6806 89.9844 33.0452C89.9844 33.4514 90.0417 33.7952 90.1562 34.0764C90.2708 34.3577 90.4427 34.5712 90.6719 34.7171C90.901 34.8629 91.1719 34.9358 91.4844 34.9358C91.9635 34.9358 92.3802 34.8369 92.7344 34.6389C93.0885 34.441 93.349 34.2014 93.5156 33.9202C93.6927 33.6389 93.75 33.3785 93.6875 33.1389L94.6875 34.8421C94.5625 35.2275 94.3906 35.6285 94.1719 36.0452C93.9635 36.4619 93.6979 36.8473 93.375 37.2014C93.0521 37.5556 92.651 37.8473 92.1719 38.0764C91.7031 38.2952 91.1458 38.4046 90.5 38.4046C89.5938 38.4046 88.7656 38.1962 88.0156 37.7796C87.2656 37.3629 86.6719 36.7796 86.2344 36.0296C85.8073 35.2796 85.5938 34.3889 85.5938 33.3577C85.5938 32.5035 85.7292 31.7327 86 31.0452C86.2812 30.3473 86.6979 29.7587 87.25 29.2796C87.8021 28.79 88.5 28.415 89.3438 28.1546C90.1875 27.8942 91.1771 27.7639 92.3125 27.7639H94.0469ZM109.344 34.3577V14.0921H113.734V38.0921L109.766 38.1077L109.344 34.3577ZM100.578 30.2327V29.1077C100.578 27.7327 100.693 26.5296 100.922 25.4983C101.161 24.4671 101.516 23.6077 101.984 22.9202C102.453 22.2327 103.026 21.7223 103.703 21.3889C104.391 21.0452 105.177 20.8733 106.062 20.8733C106.865 20.8733 107.568 21.0764 108.172 21.4827C108.786 21.8785 109.307 22.4358 109.734 23.1546C110.161 23.8733 110.505 24.7223 110.766 25.7014C111.026 26.6806 111.208 27.7535 111.312 28.9202V30.5452C111.188 31.6494 110.995 32.6806 110.734 33.6389C110.484 34.5973 110.141 35.4306 109.703 36.1389C109.276 36.8473 108.76 37.4046 108.156 37.8108C107.552 38.2067 106.849 38.4046 106.047 38.4046C105.161 38.4046 104.375 38.2275 103.688 37.8733C103.01 37.5192 102.438 36.9983 101.969 36.3108C101.51 35.6129 101.161 34.7587 100.922 33.7483C100.693 32.7275 100.578 31.5556 100.578 30.2327ZM104.953 29.1077V30.2327C104.953 31.0244 104.99 31.7067 105.062 32.2796C105.146 32.8421 105.276 33.3056 105.453 33.6702C105.641 34.0244 105.885 34.29 106.188 34.4671C106.49 34.6337 106.865 34.7171 107.312 34.7171C107.896 34.7171 108.37 34.5712 108.734 34.2796C109.099 33.9775 109.37 33.566 109.547 33.0452C109.734 32.5139 109.839 31.9046 109.859 31.2171V28.2639C109.839 27.691 109.771 27.1754 109.656 26.7171C109.542 26.2587 109.38 25.8681 109.172 25.5452C108.964 25.2223 108.703 24.9723 108.391 24.7952C108.089 24.6181 107.734 24.5296 107.328 24.5296C106.891 24.5296 106.516 24.6181 106.203 24.7952C105.901 24.9723 105.661 25.2483 105.484 25.6233C105.307 25.9879 105.172 26.4619 105.078 27.0452C104.995 27.6181 104.953 28.3056 104.953 29.1077ZM123.844 38.4046C122.688 38.4046 121.661 38.2275 120.766 37.8733C119.88 37.5192 119.13 37.0087 118.516 36.3421C117.901 35.665 117.432 34.8473 117.109 33.8889C116.786 32.9306 116.625 31.8369 116.625 30.6077V29.2171C116.625 27.8421 116.781 26.6389 117.094 25.6077C117.406 24.566 117.849 23.691 118.422 22.9827C118.995 22.2744 119.698 21.7483 120.531 21.4046C121.375 21.0504 122.328 20.8733 123.391 20.8733C124.453 20.8733 125.385 21.0504 126.188 21.4046C127 21.7483 127.672 22.2692 128.203 22.9671C128.734 23.6546 129.135 24.5087 129.406 25.5296C129.677 26.5504 129.812 27.7379 129.812 29.0921V31.0921H118.484V28.0139H125.516V27.6233C125.516 26.9358 125.443 26.3629 125.297 25.9046C125.151 25.4358 124.922 25.0869 124.609 24.8577C124.297 24.6285 123.88 24.5139 123.359 24.5139C122.922 24.5139 122.552 24.6025 122.25 24.7796C121.948 24.9567 121.708 25.2327 121.531 25.6077C121.354 25.9827 121.224 26.4723 121.141 27.0764C121.057 27.6702 121.016 28.3837 121.016 29.2171V30.6077C121.016 31.3889 121.083 32.0452 121.219 32.5764C121.354 33.0973 121.552 33.5244 121.812 33.8577C122.083 34.1806 122.411 34.415 122.797 34.5608C123.182 34.6962 123.63 34.7639 124.141 34.7639C124.911 34.7639 125.604 34.6285 126.219 34.3577C126.844 34.0764 127.375 33.6962 127.812 33.2171L129.562 35.8733C129.26 36.2692 128.844 36.665 128.312 37.0608C127.781 37.4567 127.146 37.7796 126.406 38.0296C125.667 38.2796 124.812 38.4046 123.844 38.4046ZM136.75 24.6858V38.0921H132.359V21.1858H136.469L136.75 24.6858ZM136.141 29.0608L134.922 29.0921C134.901 27.9046 135.005 26.8108 135.234 25.8108C135.464 24.8108 135.807 23.941 136.266 23.2014C136.734 22.4619 137.323 21.8889 138.031 21.4827C138.75 21.0764 139.578 20.8733 140.516 20.8733C141.12 20.8733 141.682 20.9879 142.203 21.2171C142.734 21.4358 143.188 21.7848 143.562 22.2639C143.948 22.7327 144.245 23.3473 144.453 24.1077C144.661 24.8577 144.766 25.7587 144.766 26.8108V38.0921H140.406V27.3421C140.406 26.5921 140.333 26.0192 140.188 25.6233C140.042 25.2171 139.833 24.9358 139.562 24.7796C139.292 24.6129 138.958 24.5296 138.562 24.5296C138.146 24.5296 137.781 24.6442 137.469 24.8733C137.156 25.1025 136.901 25.4254 136.703 25.8421C136.516 26.2483 136.37 26.7275 136.266 27.2796C136.172 27.8317 136.13 28.4254 136.141 29.0608ZM144.359 28.6233L142.797 28.8264C142.766 27.7119 142.859 26.6702 143.078 25.7014C143.297 24.7327 143.635 23.8889 144.094 23.1702C144.552 22.4514 145.125 21.8889 145.812 21.4827C146.51 21.0764 147.318 20.8733 148.234 20.8733C148.922 20.8733 149.547 20.9879 150.109 21.2171C150.672 21.4462 151.151 21.816 151.547 22.3264C151.953 22.8264 152.26 23.4879 152.469 24.3108C152.688 25.1233 152.797 26.1233 152.797 27.3108V38.0921H148.406V27.3264C148.406 26.566 148.333 25.9827 148.188 25.5764C148.052 25.1702 147.849 24.8942 147.578 24.7483C147.307 24.6025 146.979 24.5296 146.594 24.5296C146.219 24.5296 145.891 24.6337 145.609 24.8421C145.339 25.0504 145.109 25.3421 144.922 25.7171C144.734 26.0921 144.594 26.5244 144.5 27.0139C144.406 27.5035 144.359 28.04 144.359 28.6233Z" fill="#252420"/>
<path d="M160.391 24.7952V38.0921H156V21.1858H160.094L160.391 24.7952ZM159.734 29.0608L158.562 29.0921C158.542 27.8212 158.661 26.6806 158.922 25.6702C159.193 24.6598 159.573 23.8004 160.062 23.0921C160.562 22.3733 161.156 21.8264 161.844 21.4514C162.531 21.066 163.307 20.8733 164.172 20.8733C164.828 20.8733 165.427 20.9879 165.969 21.2171C166.521 21.4462 166.995 21.8108 167.391 22.3108C167.786 22.8108 168.094 23.4723 168.312 24.2952C168.531 25.1181 168.641 26.1337 168.641 27.3421V38.0921H164.25V27.3108C164.25 26.5817 164.177 26.0192 164.031 25.6233C163.885 25.2171 163.667 24.9358 163.375 24.7796C163.094 24.6129 162.729 24.5296 162.281 24.5296C161.865 24.5296 161.495 24.6442 161.172 24.8733C160.849 25.1025 160.578 25.4254 160.359 25.8421C160.151 26.2483 159.99 26.7275 159.875 27.2796C159.771 27.8317 159.724 28.4254 159.734 29.0608ZM179.297 34.2014V26.3889C179.297 25.8785 179.234 25.4723 179.109 25.1702C178.995 24.8681 178.818 24.6494 178.578 24.5139C178.349 24.3681 178.068 24.2952 177.734 24.2952C177.359 24.2952 177.047 24.3733 176.797 24.5296C176.547 24.6858 176.359 24.9098 176.234 25.2014C176.12 25.4931 176.062 25.8421 176.062 26.2483H171.672C171.672 25.5192 171.812 24.8317 172.094 24.1858C172.375 23.5296 172.786 22.9567 173.328 22.4671C173.88 21.9671 174.536 21.5764 175.297 21.2952C176.057 21.0139 176.911 20.8733 177.859 20.8733C178.984 20.8733 179.984 21.066 180.859 21.4514C181.734 21.8264 182.427 22.4254 182.938 23.2483C183.448 24.0712 183.703 25.1389 183.703 26.4514V33.9827C183.703 34.9306 183.75 35.7014 183.844 36.2952C183.948 36.8889 184.099 37.3994 184.297 37.8264V38.0921H179.891C179.693 37.6233 179.542 37.04 179.438 36.3421C179.344 35.6337 179.297 34.9202 179.297 34.2014ZM179.828 27.7639L179.844 30.3889H178.234C177.818 30.3889 177.453 30.4567 177.141 30.5921C176.839 30.7275 176.583 30.9202 176.375 31.1702C176.167 31.4098 176.01 31.691 175.906 32.0139C175.812 32.3369 175.766 32.6806 175.766 33.0452C175.766 33.4514 175.823 33.7952 175.938 34.0764C176.052 34.3577 176.224 34.5712 176.453 34.7171C176.682 34.8629 176.953 34.9358 177.266 34.9358C177.745 34.9358 178.161 34.8369 178.516 34.6389C178.87 34.441 179.13 34.2014 179.297 33.9202C179.474 33.6389 179.531 33.3785 179.469 33.1389L180.469 34.8421C180.344 35.2275 180.172 35.6285 179.953 36.0452C179.745 36.4619 179.479 36.8473 179.156 37.2014C178.833 37.5556 178.432 37.8473 177.953 38.0764C177.484 38.2952 176.927 38.4046 176.281 38.4046C175.375 38.4046 174.547 38.1962 173.797 37.7796C173.047 37.3629 172.453 36.7796 172.016 36.0296C171.589 35.2796 171.375 34.3889 171.375 33.3577C171.375 32.5035 171.51 31.7327 171.781 31.0452C172.062 30.3473 172.479 29.7587 173.031 29.2796C173.583 28.79 174.281 28.415 175.125 28.1546C175.969 27.8942 176.958 27.7639 178.094 27.7639H179.828ZM194.438 33.5296C194.438 33.2379 194.339 32.9775 194.141 32.7483C193.943 32.5192 193.63 32.2848 193.203 32.0452C192.776 31.7952 192.208 31.5192 191.5 31.2171C190.729 30.9046 190.047 30.5817 189.453 30.2483C188.859 29.915 188.354 29.5452 187.938 29.1389C187.531 28.7327 187.224 28.2692 187.016 27.7483C186.807 27.2275 186.703 26.6337 186.703 25.9671C186.703 25.2483 186.833 24.5869 187.094 23.9827C187.365 23.3681 187.75 22.8317 188.25 22.3733C188.75 21.9046 189.359 21.54 190.078 21.2796C190.807 21.0087 191.625 20.8733 192.531 20.8733C193.802 20.8733 194.891 21.0973 195.797 21.5452C196.714 21.9827 197.417 22.5973 197.906 23.3889C198.396 24.1806 198.641 25.1025 198.641 26.1546H194.266C194.266 25.7796 194.208 25.4462 194.094 25.1546C193.979 24.8525 193.792 24.6181 193.531 24.4514C193.281 24.2848 192.943 24.2014 192.516 24.2014C192.203 24.2014 191.922 24.2692 191.672 24.4046C191.432 24.54 191.24 24.7223 191.094 24.9514C190.958 25.1702 190.891 25.4306 190.891 25.7327C190.891 25.9619 190.938 26.165 191.031 26.3421C191.135 26.5192 191.297 26.691 191.516 26.8577C191.734 27.0244 192.026 27.2014 192.391 27.3889C192.766 27.566 193.224 27.7639 193.766 27.9827C194.891 28.3994 195.812 28.8473 196.531 29.3264C197.26 29.8056 197.802 30.3681 198.156 31.0139C198.51 31.6494 198.688 32.4358 198.688 33.3733C198.688 34.1233 198.542 34.8056 198.25 35.4202C197.969 36.0348 197.557 36.566 197.016 37.0139C196.474 37.4619 195.823 37.8056 195.062 38.0452C194.312 38.2848 193.474 38.4046 192.547 38.4046C191.182 38.4046 190.031 38.1337 189.094 37.5921C188.156 37.0504 187.448 36.3577 186.969 35.5139C186.49 34.6598 186.25 33.7744 186.25 32.8577H190.406C190.427 33.4202 190.531 33.8629 190.719 34.1858C190.917 34.4983 191.182 34.7171 191.516 34.8421C191.849 34.9671 192.219 35.0296 192.625 35.0296C193.031 35.0296 193.365 34.9775 193.625 34.8733C193.896 34.7587 194.099 34.5869 194.234 34.3577C194.37 34.1181 194.438 33.8421 194.438 33.5296ZM205.734 14.0921V38.0921H201.359V14.0921H205.734ZM205.109 29.0608L203.922 29.0921C203.922 27.9046 204.042 26.8108 204.281 25.8108C204.521 24.8108 204.875 23.941 205.344 23.2014C205.823 22.4619 206.396 21.8889 207.062 21.4827C207.74 21.0764 208.484 20.8733 209.297 20.8733C209.995 20.8733 210.63 20.9931 211.203 21.2327C211.776 21.4723 212.271 21.8473 212.688 22.3577C213.115 22.8681 213.443 23.5452 213.672 24.3889C213.901 25.2223 214.016 26.2327 214.016 27.4202V38.0921H209.625V27.3889C209.625 26.6598 209.552 26.0869 209.406 25.6702C209.26 25.2535 209.042 24.9619 208.75 24.7952C208.458 24.6181 208.094 24.5296 207.656 24.5296C207.188 24.5296 206.786 24.6442 206.453 24.8733C206.13 25.1025 205.87 25.4254 205.672 25.8421C205.474 26.2483 205.328 26.7275 205.234 27.2796C205.151 27.8317 205.109 28.4254 205.109 29.0608ZM221.594 24.9514V38.0921H217.219V21.1858H221.344L221.594 24.9514ZM225.578 21.0608L225.516 25.4202C225.318 25.3785 225.078 25.3473 224.797 25.3264C224.526 25.3056 224.286 25.2952 224.078 25.2952C223.589 25.2952 223.172 25.3733 222.828 25.5296C222.484 25.6754 222.198 25.8994 221.969 26.2014C221.75 26.4931 221.583 26.8577 221.469 27.2952C221.354 27.7327 221.286 28.2275 221.266 28.7796L220.438 28.4671C220.438 27.3629 220.521 26.3525 220.688 25.4358C220.865 24.5087 221.125 23.7067 221.469 23.0296C221.812 22.3421 222.224 21.8108 222.703 21.4358C223.193 21.0608 223.745 20.8733 224.359 20.8733C224.568 20.8733 224.786 20.8942 225.016 20.9358C225.255 20.9671 225.443 21.0087 225.578 21.0608Z" fill="#FF7500"/>
<defs>
<clipPath id="clip0_19_119">
<rect width="38" height="59.1841" fill="white"/>
</clipPath>
</defs>
</svg>
